<?xml version="1.0" standalone="no"?>
<!DOCTYPE svg PUBLIC "-//W3C//DTD SVG 20010904//EN"
 "http://www.w3.org/TR/2001/REC-SVG-20010904/DTD/svg10.dtd">
<svg version="1.0" xmlns="http://www.w3.org/2000/svg"
 width="876.000000pt" height="492.000000pt" viewBox="0 0 876.000000 492.000000"
 preserveAspectRatio="xMidYMid meet">
<metadata>
Created by potrace 1.10, written by Peter Selinger 2001-2011
</metadata>
<g transform="translate(0.000000,492.000000) scale(0.100000,-0.100000)"
fill="#000000" stroke="none">
<path d="M7152 4737 c-18 -19 -22 -35 -22 -84 0 -42 5 -64 15 -73 10 -8 15
-30 15 -62 0 -34 -4 -50 -15 -54 -25 -10 -17 -32 13 -36 25 -3 27 -7 30 -55 2
-29 9 -56 17 -63 11 -9 15 -35 15 -96 0 -68 3 -84 15 -84 10 0 15 -10 15 -30
0 -20 -5 -30 -15 -30 -9 0 -15 10 -15 26 0 16 -11 35 -30 51 -16 13 -30 33
-30 43 0 10 -7 23 -15 30 -8 7 -15 20 -15 29 0 10 -13 30 -30 46 -16 16 -30
36 -30 46 0 9 -7 22 -15 29 -8 7 -15 20 -15 29 0 10 -13 30 -30 46 -21 20 -30
38 -30 60 0 25 -13 44 -68 98 -37 37 -74 67 -83 67 -8 0 -32 -17 -52 -38 -34
-35 -37 -42 -37 -99 0 -42 5 -64 15 -73 10 -9 15 -32 15 -75 0 -43 5 -66 15
-75 11 -9 15 -33 15 -90 0 -57 4 -81 15 -90 10 -9 15 -32 15 -75 0 -43 5 -66
15 -75 11 -9 15 -35 15 -105 0 -70 4 -96 15 -105 12 -10 15 -37 15 -120 0 -82
3 -110 14 -120 8 -6 16 -28 18 -48 2 -29 8 -38 25 -40 12 -2 27 -10 33 -18 18
-21 43 -17 68 9 20 21 22 34 22 129 0 82 -3 108 -15 118 -10 9 -15 32 -15 75
0 43 -5 66 -15 75 -12 10 -15 37 -15 126 0 95 -3 114 -15 114 -8 0 -15 7 -15
15 0 8 7 15 15 15 8 0 15 -7 15 -15 0 -8 7 -15 15 -15 9 0 15 -9 15 -23 0 -14
18 -40 45 -67 25 -24 45 -52 45 -61 0 -9 7 -22 15 -29 8 -7 15 -20 15 -30 0
-10 7 -23 15 -30 8 -7 15 -20 15 -29 0 -10 14 -30 30 -46 17 -16 30 -36 30
-46 0 -9 7 -22 15 -29 8 -7 15 -20 15 -29 0 -21 100 -121 121 -121 8 0 32 17
52 38 32 32 37 44 37 84 0 28 -6 50 -15 58 -8 7 -15 27 -15 45 0 18 -7 38 -15
45 -11 9 -15 33 -15 90 0 57 -4 81 -15 90 -11 9 -15 35 -15 105 0 70 -4 96
-15 105 -11 9 -15 33 -15 90 0 57 -4 81 -15 90 -10 9 -15 32 -15 75 0 43 -5
66 -15 75 -9 8 -15 30 -15 60 0 30 -6 52 -15 60 -8 7 -15 20 -15 30 0 10 -6
23 -14 30 -8 6 -16 21 -18 33 -5 33 -66 36 -96 4z"/>
<path d="M5120 4506 c-6 -8 -21 -16 -33 -18 -19 -3 -23 -11 -27 -58 l-5 -55
-53 -3 c-40 -2 -54 1 -58 12 -8 20 -30 21 -37 1 -4 -10 -26 -15 -74 -17 -62
-3 -68 -5 -73 -28 -5 -20 -13 -26 -42 -28 -29 -3 -40 2 -61 27 -31 37 -47 39
-47 7 0 -13 -7 -29 -15 -36 -13 -11 -15 -39 -13 -169 l3 -156 49 -3 c32 -2 54
2 65 11 9 8 25 17 36 19 17 3 20 11 20 58 l0 55 -42 3 c-34 2 -43 0 -43 -12 0
-9 -7 -16 -15 -16 -8 0 -15 7 -15 15 0 8 6 15 14 15 8 0 16 7 20 15 4 11 22
15 76 15 53 0 70 3 70 14 0 8 -7 16 -15 20 -20 7 -21 86 -1 86 8 0 16 -12 18
-27 2 -19 10 -29 28 -33 15 -4 26 -15 30 -30 7 -30 35 -37 60 -15 13 12 33 15
81 13 l64 -3 3 -127 c2 -96 6 -129 17 -138 12 -10 15 -38 15 -122 0 -87 3
-110 15 -114 8 -4 15 -12 15 -19 0 -7 -7 -15 -15 -19 -11 -4 -15 -22 -15 -71
0 -49 4 -67 15 -71 8 -4 15 -12 15 -20 0 -8 -7 -14 -15 -14 -8 0 -15 -6 -15
-14 0 -8 7 -16 15 -20 12 -4 15 -23 15 -84 0 -57 4 -83 14 -92 8 -6 16 -28 18
-48 2 -29 8 -38 25 -40 12 -2 27 -10 33 -18 7 -8 24 -14 37 -14 15 0 23 -5 21
-12 -3 -8 -29 -14 -70 -16 -43 -2 -71 -8 -78 -17 -9 -11 -34 -15 -90 -15 -57
0 -81 -4 -90 -15 -7 -8 -20 -15 -29 -15 -19 -1 -61 -34 -61 -49 0 -7 28 -11
75 -11 60 0 75 3 75 15 0 8 7 15 15 15 8 0 15 -7 15 -15 0 -8 -7 -15 -15 -15
-8 0 -15 -7 -15 -15 0 -9 -9 -15 -22 -15 -22 -1 -68 -31 -68 -45 0 -4 10 -15
23 -26 28 -23 109 -26 127 -4 8 9 30 15 60 15 30 0 52 6 60 15 8 9 30 15 60
15 31 0 52 5 60 15 7 9 23 15 34 13 19 -3 21 -11 24 -86 2 -61 7 -84 17 -89
24 -9 17 -33 -9 -33 -13 0 -29 -7 -36 -15 -9 -11 -35 -15 -104 -15 l-92 0 -38
-39 c-31 -32 -37 -44 -34 -72 2 -25 9 -35 23 -37 11 -2 27 -10 35 -18 11 -9
53 -14 140 -16 l125 -3 3 -67 c2 -43 8 -71 17 -78 19 -16 19 -44 0 -60 -8 -7
-15 -20 -15 -30 0 -10 7 -23 15 -30 10 -9 15 -32 15 -74 0 -52 -4 -66 -23 -84
-22 -20 -33 -22 -158 -22 -129 0 -137 -1 -157 -23 -29 -31 -29 -77 1 -105 22
-21 31 -22 233 -22 279 0 254 -28 254 287 0 202 -2 243 -15 253 -12 10 -15 38
-15 135 0 97 -3 125 -15 135 -12 10 -15 42 -15 164 0 146 -1 153 -23 174 -27
26 -79 29 -97 6 -9 -10 -26 -14 -49 -12 -33 3 -36 6 -39 39 -2 23 2 40 12 49
22 17 22 132 1 150 -17 14 -22 150 -5 150 5 0 28 -20 51 -45 23 -25 49 -45 58
-45 9 0 37 -20 61 -45 47 -48 95 -60 120 -30 7 8 20 15 29 15 9 1 27 10 40 21
22 18 23 21 7 37 -22 25 -20 32 7 32 26 0 67 38 67 62 0 9 7 21 15 28 10 9 15
32 15 75 0 43 5 66 15 75 8 7 15 27 15 45 0 18 -7 38 -15 45 -8 7 -15 20 -15
30 0 10 7 23 15 30 11 10 15 36 15 111 0 65 4 99 11 99 20 0 48 -44 49 -76 0
-49 37 -76 96 -72 42 3 49 6 52 25 2 12 10 27 18 33 8 7 14 20 14 30 0 10 7
23 15 30 9 7 15 29 15 51 0 28 4 39 15 39 11 0 15 -13 15 -54 0 -35 5 -58 15
-66 9 -8 15 -30 15 -60 0 -30 6 -52 15 -60 8 -7 15 -27 15 -45 0 -18 7 -38 15
-45 9 -8 15 -30 15 -60 0 -30 6 -52 15 -60 10 -9 15 -32 15 -75 0 -42 5 -66
14 -75 8 -6 16 -28 18 -48 3 -37 3 -37 52 -40 39 -3 53 1 72 19 20 19 24 32
24 85 0 42 -5 65 -15 74 -9 8 -15 30 -15 60 0 30 -6 52 -15 60 -11 9 -15 33
-15 90 0 57 -4 81 -15 90 -8 7 -15 27 -15 45 0 18 -7 38 -15 45 -9 8 -15 30
-15 60 0 30 -6 52 -15 60 -8 7 -15 20 -15 30 0 10 -7 23 -15 30 -9 8 -15 30
-15 60 0 30 -6 52 -15 60 -8 7 -15 27 -15 45 0 18 -7 38 -15 45 -9 8 -15 30
-15 59 0 41 -5 51 -39 85 -42 41 -74 45 -79 9 -2 -12 -10 -27 -18 -33 -8 -7
-14 -20 -14 -30 0 -10 -7 -23 -15 -30 -8 -7 -15 -27 -15 -45 0 -18 -7 -38 -15
-45 -9 -7 -15 -29 -15 -51 0 -22 -5 -39 -11 -39 -15 0 -48 42 -49 61 0 9 -7
22 -15 29 -8 7 -15 27 -15 44 0 25 -11 43 -54 85 -46 46 -58 52 -87 49 -26 -2
-35 -8 -37 -25 -2 -12 -10 -27 -18 -33 -11 -10 -14 -54 -14 -240 0 -190 -2
-230 -15 -240 -12 -10 -15 -40 -15 -150 0 -108 -3 -140 -15 -150 -9 -7 -15
-35 -17 -78 -4 -86 -21 -92 -87 -29 -25 25 -55 47 -66 49 -36 6 -29 40 20 88
25 24 45 52 45 61 0 9 7 22 15 29 9 8 15 30 15 60 0 30 6 52 15 60 12 10 15
43 15 180 0 137 -3 170 -15 180 -8 7 -15 20 -15 30 0 10 -7 23 -15 30 -8 7
-15 27 -15 44 0 26 -13 44 -68 99 l-68 67 -136 0 c-106 0 -138 -3 -148 -14z
m180 -151 c7 -8 19 -15 28 -15 21 0 62 -40 62 -61 0 -9 7 -22 15 -29 8 -7 15
-20 15 -30 0 -10 7 -23 15 -30 12 -10 15 -37 15 -120 0 -83 -3 -110 -15 -120
-8 -7 -15 -20 -15 -30 0 -10 -6 -23 -14 -30 -8 -6 -16 -21 -18 -33 -2 -14 -11
-23 -26 -25 -13 -2 -26 -10 -29 -18 -9 -23 -33 -16 -33 10 0 13 -7 29 -15 36
-12 10 -15 40 -15 150 0 110 -3 140 -15 150 -11 9 -15 35 -15 105 0 50 3 95 7
98 11 12 40 8 53 -8z m-360 -91 c0 -12 -9 -14 -42 -12 -59 4 -63 28 -4 28 35
0 46 -4 46 -16z m-240 -59 c0 -8 -7 -15 -15 -15 -8 0 -15 7 -15 15 0 8 7 15
15 15 8 0 15 -7 15 -15z m600 -1140 c0 -10 -10 -15 -30 -15 -20 0 -30 -5 -30
-15 0 -10 -10 -15 -30 -15 -20 0 -30 5 -30 15 0 10 10 15 29 15 16 0 31 6 35
15 3 8 17 15 31 15 16 0 25 -6 25 -15z m-150 -60 c0 -8 -7 -15 -15 -15 -8 0
-15 7 -15 15 0 8 7 15 15 15 8 0 15 -7 15 -15z"/>
<path d="M6462 4497 c-20 -21 -22 -33 -22 -144 0 -95 3 -123 15 -133 11 -9 15
-35 15 -105 0 -70 4 -96 15 -105 10 -9 15 -32 15 -75 0 -43 5 -66 15 -75 12
-10 15 -38 15 -135 0 -97 3 -125 15 -135 9 -8 15 -30 15 -59 0 -67 29 -93 96
-89 l49 3 3 141 c2 117 0 143 -13 154 -11 9 -15 34 -15 105 0 70 -4 96 -15
105 -11 9 -15 33 -15 90 0 57 -4 81 -15 90 -10 9 -15 32 -15 75 0 43 -5 66
-15 75 -11 9 -15 33 -15 90 0 55 -4 81 -14 90 -8 6 -16 21 -18 33 -5 33 -66
36 -96 4z"/>
<path d="M1002 4437 c-13 -14 -22 -36 -22 -54 0 -22 -9 -38 -30 -56 -36 -31
-36 -34 -7 -58 27 -22 50 -24 67 -4 7 8 20 15 30 15 10 0 23 -7 30 -15 7 -8
20 -15 30 -15 10 0 23 -7 30 -15 7 -8 27 -15 44 -15 34 0 76 -34 76 -61 0 -9
10 -25 23 -37 19 -18 35 -22 84 -22 42 0 64 5 73 15 8 9 30 15 60 15 30 0 52
-6 60 -15 19 -23 73 -19 98 8 31 33 31 105 -1 135 -13 12 -30 22 -39 22 -9 0
-21 7 -28 15 -9 10 -32 15 -75 15 -43 0 -66 5 -75 15 -7 8 -27 15 -45 15 -18
0 -38 7 -45 15 -7 8 -20 15 -30 15 -10 0 -23 7 -30 15 -8 9 -30 15 -59 15 -39
0 -52 5 -76 30 -38 40 -109 43 -143 7z"/>
<path d="M3897 4393 c-4 -3 -7 -28 -7 -53 0 -30 -6 -52 -15 -60 -10 -9 -15
-32 -15 -77 0 -47 4 -65 15 -69 8 -4 15 -12 15 -20 0 -8 -7 -14 -15 -14 -8 0
-15 -6 -15 -14 0 -8 7 -16 15 -20 10 -4 15 -20 15 -54 0 -64 27 -92 91 -92 35
0 51 6 67 23 21 22 22 32 22 203 l0 180 -38 37 c-32 32 -44 37 -83 37 -25 0
-49 -3 -52 -7z"/>
<path d="M4377 4362 c-36 -37 -37 -40 -37 -114 0 -55 -4 -79 -15 -88 -9 -8
-15 -30 -15 -60 0 -31 -5 -52 -16 -60 -23 -20 -15 -84 12 -88 11 -2 27 4 34
13 8 9 29 15 59 15 72 0 91 25 91 122 0 55 4 79 15 88 8 7 15 20 15 30 0 10 7
23 15 30 8 7 15 20 15 30 0 10 -7 23 -15 30 -8 7 -15 20 -15 29 0 27 -43 61
-76 61 -21 0 -40 -11 -67 -38z"/>
<path d="M3080 4295 c-9 -10 -32 -15 -75 -15 -43 0 -66 -5 -75 -15 -9 -10 -32
-15 -75 -15 -42 0 -66 -5 -75 -14 -6 -8 -21 -16 -33 -18 -21 -3 -22 -7 -22
-148 l0 -145 53 -3 c35 -2 55 -8 59 -18 7 -18 29 -18 37 1 3 8 17 15 31 15 27
0 35 24 10 34 -24 9 -19 69 8 94 20 19 35 22 99 22 55 0 79 4 88 15 8 9 30 15
60 15 29 0 52 6 60 14 6 8 21 16 33 18 20 3 22 10 25 67 3 54 0 67 -19 87 -20
21 -31 24 -100 24 -56 0 -80 -4 -89 -15z"/>
<path d="M1857 4243 c-26 -28 -37 -48 -37 -70 0 -17 -7 -36 -15 -43 -25 -21
-20 -102 8 -128 13 -12 30 -22 39 -22 9 0 21 -7 28 -15 19 -23 73 -19 98 8 12
13 22 31 22 40 0 10 7 20 15 23 8 4 15 12 15 19 0 7 -7 15 -15 19 -11 4 -15
22 -15 69 0 44 -5 68 -14 77 -8 6 -16 21 -18 33 -2 17 -11 23 -38 25 -29 2
-41 -3 -73 -35z"/>
<path d="M2427 4213 c-4 -3 -7 -14 -7 -23 0 -10 -7 -23 -15 -30 -11 -9 -15
-33 -15 -90 0 -58 -4 -81 -15 -90 -25 -21 -15 -54 18 -58 44 -5 33 -30 -15
-34 -34 -2 -44 -7 -46 -23 -2 -11 -10 -27 -17 -35 -7 -8 -15 -24 -17 -35 -3
-18 -12 -20 -97 -23 -72 -2 -97 1 -110 12 -10 9 -42 16 -81 18 l-65 3 -5 55
-5 55 -37 3 c-20 2 -42 10 -48 18 -29 34 -90 -8 -90 -63 0 -17 -7 -36 -15 -43
-10 -9 -15 -32 -15 -77 0 -47 4 -65 15 -69 8 -4 15 -12 15 -20 0 -8 -7 -14
-15 -14 -8 0 -15 -6 -15 -14 0 -8 7 -16 15 -20 11 -4 15 -22 15 -69 0 -54 4
-67 24 -86 21 -19 32 -22 102 -19 l79 3 5 55 5 55 53 3 c40 2 54 -1 58 -12 8
-20 34 -21 34 -1 0 19 26 20 33 0 4 -10 26 -15 74 -17 l68 -3 3 -35 c2 -19 9
-42 17 -50 7 -8 15 -24 17 -35 3 -18 11 -20 88 -20 l85 0 3 233 c2 200 0 233
-13 238 -32 13 -2 50 50 64 18 5 20 16 23 101 2 77 0 99 -13 109 -8 7 -15 20
-15 29 0 40 -87 81 -113 54z"/>
<path d="M1197 4063 c-14 -13 -7 -100 8 -113 11 -9 15 -33 15 -90 0 -57 4 -81
15 -90 8 -7 15 -27 15 -45 0 -18 7 -38 15 -45 8 -7 15 -27 15 -45 0 -18 6 -38
14 -45 8 -6 16 -21 18 -33 2 -17 11 -23 38 -25 19 -2 43 -10 52 -19 9 -8 25
-13 35 -11 25 4 32 98 8 118 -10 8 -15 29 -15 60 0 30 -6 52 -15 60 -12 10
-15 37 -15 120 0 81 -4 110 -14 120 -8 6 -16 21 -18 33 -2 14 -11 23 -25 25
-12 2 -27 10 -33 18 -13 14 -100 20 -113 7z"/>
<path d="M4580 3936 c-6 -8 -21 -16 -33 -18 -22 -3 -22 -3 -25 -306 -2 -276
-1 -305 15 -327 21 -28 38 -32 47 -10 4 13 33 15 174 15 136 0 172 3 182 15 7
8 34 15 63 17 51 3 52 4 55 36 2 20 -3 41 -11 50 -8 10 -17 26 -19 37 -2 15
-12 21 -40 23 -20 2 -42 10 -48 18 -18 21 -198 20 -206 -1 -10 -25 -34 -17
-34 10 0 14 -7 28 -15 31 -19 8 -19 30 -1 37 8 3 16 16 18 29 3 22 7 23 113
26 74 2 114 7 125 16 8 8 24 16 35 18 16 2 21 12 23 52 3 45 0 52 -34 87 -36
37 -41 39 -100 39 -43 0 -65 -5 -74 -16 -9 -10 -26 -14 -49 -12 -36 3 -36 4
-39 53 -4 62 -31 95 -78 95 -17 0 -37 -6 -44 -14z m180 -211 c0 -8 -7 -15 -15
-15 -8 0 -15 7 -15 15 0 8 7 15 15 15 8 0 15 -7 15 -15z m120 -60 c0 -8 -7
-15 -15 -15 -8 0 -15 7 -15 15 0 8 7 15 15 15 8 0 15 -7 15 -15z"/>
<path d="M4242 3897 c-13 -14 -22 -36 -22 -54 0 -17 -7 -36 -15 -43 -10 -8
-15 -37 -17 -93 -3 -80 -4 -82 -28 -82 -18 0 -26 6 -28 22 -2 12 -10 27 -18
33 -8 7 -14 20 -14 30 0 10 -7 23 -15 30 -8 7 -15 20 -15 30 0 10 -7 23 -15
30 -8 7 -15 20 -15 29 0 10 -11 28 -24 40 -20 19 -33 22 -87 19 l-64 -3 -3
-51 c-2 -36 1 -54 13 -64 8 -7 15 -20 15 -30 0 -10 7 -23 15 -30 8 -7 15 -27
15 -45 0 -18 7 -38 15 -45 8 -7 15 -20 15 -30 0 -10 7 -23 15 -30 8 -7 15 -27
15 -45 0 -18 7 -38 15 -45 8 -7 15 -20 15 -29 0 -10 14 -30 30 -46 17 -16 30
-36 30 -46 0 -9 7 -22 15 -29 8 -7 15 -20 15 -29 0 -21 70 -91 92 -91 8 0 21
6 28 14 6 8 21 16 33 18 21 3 22 8 25 130 2 96 6 129 17 138 11 9 15 34 15 90
0 57 4 81 15 90 8 7 15 27 15 45 0 18 7 38 15 45 25 21 20 102 -8 128 -31 29
-77 29 -105 -1z"/>
<path d="M2667 3853 c-4 -3 -7 -15 -7 -25 0 -10 -7 -21 -15 -24 -8 -4 -15 -12
-15 -19 0 -7 7 -15 15 -19 12 -4 15 -24 15 -86 0 -62 -3 -82 -15 -86 -19 -8
-19 -30 0 -37 11 -5 15 -29 17 -104 l3 -98 49 -3 c32 -2 54 2 65 11 9 8 25 17
36 19 16 3 21 13 25 58 l5 55 125 3 c87 2 129 7 140 16 8 8 24 16 35 18 16 2
21 12 23 52 3 45 0 52 -34 87 -42 43 -90 52 -114 24 -10 -12 -31 -15 -94 -13
l-81 3 -3 65 c-4 90 -24 110 -107 110 -34 0 -65 -3 -68 -7z"/>
<path d="M1347 3463 c-12 -11 -8 -40 8 -53 10 -9 15 -32 15 -75 0 -43 5 -66
15 -75 8 -7 15 -23 15 -36 0 -20 -5 -24 -30 -24 -20 0 -30 -5 -30 -15 0 -10
10 -15 30 -15 20 0 30 5 30 15 0 11 17 15 73 17 l72 3 3 35 c2 19 10 43 19 52
22 24 1 80 -50 135 -38 42 -41 43 -102 43 -34 0 -65 -3 -68 -7z"/>
<path d="M1827 3373 c-13 -12 -7 -71 8 -83 8 -7 15 -27 15 -45 0 -18 7 -38 15
-45 8 -7 15 -27 15 -44 0 -47 35 -76 91 -76 70 0 89 26 89 122 0 54 -4 79 -14
88 -8 6 -16 21 -18 33 -2 14 -11 23 -25 25 -12 2 -27 10 -33 18 -13 14 -130
21 -143 7z"/>
<path d="M2382 3297 c-26 -27 -29 -79 -7 -97 8 -7 15 -20 15 -29 0 -10 11 -28
24 -40 20 -19 33 -22 87 -19 l64 3 3 37 c2 20 10 42 18 48 23 20 16 44 -24 83
-35 34 -42 37 -98 37 -50 0 -64 -4 -82 -23z"/>
<path d="M2697 3314 c-4 -4 -7 -49 -7 -99 0 -69 4 -96 14 -105 8 -6 16 -28 18
-48 l3 -37 52 -3 c29 -2 56 -9 63 -17 17 -20 79 -20 86 0 4 8 12 15 19 15 7 0
15 -7 19 -15 8 -21 158 -22 176 -1 6 8 21 16 33 18 19 3 22 10 25 52 3 39 -1
53 -19 72 -20 21 -31 24 -100 24 -56 0 -80 4 -89 15 -16 19 -44 19 -60 0 -18
-21 -54 -15 -58 10 -2 11 -10 27 -17 35 -8 8 -15 31 -17 50 l-3 35 -65 3 c-36
2 -69 0 -73 -4z"/>
<path d="M6740 3305 c-9 -11 -35 -15 -105 -15 -70 0 -96 -4 -105 -15 -8 -9
-30 -15 -59 -15 -41 0 -52 -5 -84 -38 -20 -21 -37 -45 -37 -53 0 -20 41 -59
62 -59 9 0 21 -7 28 -15 9 -10 39 -15 108 -17 l97 -3 3 -293 c2 -248 5 -294
17 -298 25 -10 17 -32 -12 -36 -20 -2 -29 -9 -31 -25 -2 -12 -10 -27 -18 -33
-10 -9 -14 -37 -14 -105 0 -68 4 -96 14 -105 8 -6 16 -21 18 -33 2 -13 13 -23
28 -27 22 -5 25 -12 28 -55 2 -34 10 -57 24 -72 29 -31 78 -30 107 1 19 20 22
33 19 87 -3 58 -5 64 -28 69 -24 6 -25 9 -28 101 -2 77 0 99 13 109 10 8 15
29 15 60 0 30 6 52 15 60 12 10 15 37 15 122 0 87 3 110 15 114 8 4 15 12 15
19 0 7 -7 15 -15 19 -13 4 -15 33 -15 174 0 163 1 169 23 190 17 16 36 22 69
22 28 0 50 6 58 15 7 8 20 15 29 15 27 0 61 43 61 76 0 19 -9 39 -23 52 -22
20 -33 22 -159 22 -108 0 -138 -3 -148 -15z"/>
<path d="M2630 3275 c0 -8 7 -15 15 -15 8 0 15 7 15 15 0 8 -7 15 -15 15 -8 0
-15 -7 -15 -15z"/>
<path d="M6192 3237 c-20 -21 -22 -34 -22 -129 0 -82 3 -108 15 -118 12 -10
15 -42 15 -165 0 -123 3 -155 15 -165 12 -10 15 -48 15 -224 0 -211 0 -213 24
-235 19 -18 33 -22 72 -19 l49 3 3 336 c2 290 0 338 -13 349 -10 9 -15 31 -15
75 0 43 -5 66 -15 75 -11 9 -15 33 -15 90 0 55 -4 81 -14 90 -8 6 -16 21 -18
33 -5 33 -66 36 -96 4z"/>
<path d="M7632 3207 c-19 -20 -22 -35 -22 -115 0 -73 3 -94 15 -98 8 -4 15
-12 15 -19 0 -7 -7 -15 -15 -19 -8 -3 -15 -14 -15 -24 0 -11 7 -25 15 -32 8
-7 15 -27 15 -45 0 -18 6 -38 14 -45 8 -6 16 -21 18 -33 3 -19 10 -22 52 -25
39 -3 53 1 72 19 28 26 32 80 9 99 -12 10 -15 29 -13 79 3 58 5 66 24 69 11 2
27 -4 34 -13 7 -8 20 -15 29 -15 21 0 61 -41 61 -62 0 -9 7 -21 15 -28 8 -7
15 -20 15 -30 0 -10 7 -23 15 -30 8 -7 15 -20 15 -30 0 -10 -7 -23 -15 -30
-11 -9 -15 -33 -15 -89 0 -68 3 -80 23 -99 34 -33 75 -28 120 13 40 38 45 50
22 59 -11 4 -15 20 -15 56 0 36 -4 52 -15 56 -22 9 -18 22 15 51 34 28 41 81
15 103 -10 8 -15 30 -15 61 0 35 -5 51 -17 58 -15 8 -16 13 -6 29 14 24 8 32
-27 32 -16 0 -37 11 -55 30 -16 17 -36 30 -46 30 -9 0 -22 7 -29 15 -8 9 -30
15 -60 15 -30 0 -52 6 -60 15 -9 11 -33 15 -89 15 -68 0 -80 -3 -99 -23z"/>
<path d="M5806 3185 c-4 -11 -22 -15 -69 -15 -53 0 -67 -4 -85 -23 -19 -20
-22 -35 -22 -114 0 -68 4 -94 15 -103 12 -10 15 -37 15 -120 0 -83 3 -110 15
-120 11 -9 15 -35 15 -105 0 -70 4 -96 15 -105 11 -9 15 -33 15 -90 0 -57 4
-81 15 -90 9 -8 15 -30 15 -60 0 -30 6 -52 15 -60 10 -9 15 -32 15 -74 0 -52
4 -66 23 -84 31 -29 77 -29 105 1 18 19 22 35 22 84 0 42 -5 64 -15 73 -17 14
-22 150 -5 150 15 0 79 -73 80 -90 0 -9 24 -39 53 -68 52 -51 56 -53 103 -50
l49 3 3 65 3 65 -136 134 c-74 74 -135 136 -135 137 0 2 20 22 45 45 25 23 45
49 45 58 0 10 14 30 30 46 30 28 30 30 30 136 0 82 -3 109 -15 119 -8 7 -15
27 -15 45 0 18 -7 38 -15 45 -8 7 -15 20 -15 29 0 9 -24 40 -53 69 -42 41 -59
52 -85 52 -20 0 -35 6 -38 15 -4 8 -12 15 -19 15 -7 0 -15 -7 -19 -15z m71
-187 c15 -14 23 -33 23 -54 0 -17 7 -37 15 -44 9 -8 15 -30 15 -60 0 -30 -6
-52 -15 -60 -8 -7 -15 -20 -15 -29 0 -24 -44 -64 -67 -59 -14 2 -19 14 -21 55
-2 29 -9 56 -17 63 -11 9 -15 36 -15 105 0 50 3 95 7 98 14 15 68 6 90 -15z"/>
<path d="M7310 3185 c-9 -10 -39 -15 -108 -17 -91 -3 -97 -4 -100 -25 -2 -12
-10 -27 -18 -33 -11 -10 -14 -58 -14 -269 0 -257 0 -258 23 -280 21 -19 25
-20 37 -6 14 17 60 21 60 4 0 -20 -44 -48 -76 -49 -50 0 -74 -35 -74 -107 0
-40 5 -65 14 -73 8 -6 16 -21 18 -33 4 -27 61 -36 86 -14 10 8 26 17 37 19 17
3 20 12 23 68 4 85 25 110 93 110 29 0 51 6 59 15 7 8 20 15 29 15 22 0 61 41
61 63 0 10 -7 20 -15 23 -25 10 -17 32 13 36 21 2 27 8 27 28 0 24 -2 25 -79
28 -61 2 -82 -1 -96 -13 -25 -22 -54 -15 -58 13 -2 13 -10 26 -18 29 -19 7
-18 33 1 33 8 0 15 6 15 14 0 8 -7 16 -15 20 -12 4 -15 23 -15 84 0 69 3 81
23 100 20 19 35 22 114 22 67 0 94 4 103 14 6 8 21 16 33 18 19 3 22 10 25 52
3 45 0 52 -34 87 -36 37 -41 39 -100 39 -42 0 -65 -5 -74 -15z"/>
<path d="M4587 3132 c-34 -35 -37 -42 -37 -98 0 -77 23 -104 91 -104 68 0 114
57 74 90 -9 8 -15 30 -15 59 0 37 -5 53 -23 69 -32 30 -47 28 -90 -16z"/>
<path d="M3398 3085 c-22 -29 -22 -35 -3 -35 8 0 15 -7 15 -15 0 -8 7 -15 15
-15 8 0 15 7 15 15 0 8 7 15 15 15 8 0 15 -7 15 -15 0 -8 -7 -15 -15 -15 -8 0
-15 -7 -15 -15 0 -8 -4 -15 -10 -15 -10 0 -50 36 -50 45 0 7 -39 45 -46 45
-12 0 -43 -45 -44 -63 0 -10 7 -20 15 -23 8 -4 15 -12 15 -19 0 -7 -7 -15 -15
-19 -12 -4 -15 -27 -15 -114 0 -107 0 -109 30 -137 l30 -29 0 -122 c0 -96 3
-124 15 -134 11 -9 15 -35 15 -105 0 -70 4 -96 15 -105 10 -9 15 -32 15 -75 0
-43 -5 -66 -15 -75 -8 -7 -15 -20 -15 -30 0 -10 7 -23 15 -30 9 -8 15 -30 15
-60 0 -30 6 -52 15 -60 8 -7 15 -20 15 -29 0 -21 41 -61 62 -61 9 0 21 6 28
14 6 8 21 16 33 18 21 3 22 8 25 131 2 107 0 128 -13 133 -19 8 -20 34 0 34 8
0 15 6 15 14 0 8 -7 16 -15 20 -12 4 -15 30 -15 144 0 112 -3 142 -15 152 -8
7 -15 27 -15 45 0 18 7 38 15 45 9 8 15 30 15 59 0 53 -29 91 -68 91 -25 0
-30 25 -7 34 8 3 15 14 15 24 0 11 -7 25 -15 32 -12 10 -15 36 -14 124 l0 111
44 35 c24 19 44 41 44 48 1 17 -44 15 -59 -3 -7 -8 -21 -15 -32 -15 -10 0 -21
7 -24 15 -9 22 -26 18 -46 -10z"/>
<path d="M3912 3087 c-18 -19 -22 -35 -22 -84 0 -42 5 -64 15 -73 9 -8 15 -30
15 -59 1 -62 47 -119 63 -77 3 8 22 16 44 18 l38 3 3 109 c2 83 -1 112 -12
125 -7 9 -16 25 -18 36 -3 16 -12 21 -53 23 -42 2 -54 -1 -73 -21z"/>
<path d="M4212 3087 c-19 -20 -22 -35 -22 -98 0 -66 3 -78 24 -98 20 -19 33
-22 87 -19 l64 3 3 36 c2 23 -2 40 -12 49 -10 8 -16 29 -16 59 0 37 -5 53 -23
69 -31 29 -77 29 -105 -1z"/>
<path d="M837 3042 c-20 -21 -37 -45 -37 -54 0 -8 -7 -21 -15 -28 -11 -9 -15
-33 -15 -92 0 -61 3 -80 15 -84 8 -4 15 -12 15 -19 0 -7 -7 -15 -15 -19 -10
-4 -15 -20 -15 -54 0 -42 4 -52 38 -85 28 -27 46 -37 70 -37 20 0 35 -6 38
-15 17 -43 63 13 64 76 0 38 -5 50 -30 74 -33 32 -38 56 -15 75 11 9 15 33 15
90 0 58 4 81 16 90 10 9 14 26 12 49 -2 28 -8 37 -25 39 -12 2 -27 10 -33 18
-20 23 -44 16 -83 -24z"/>
<path d="M1697 3066 c-3 -8 -16 -16 -29 -18 -19 -2 -24 -10 -26 -40 -2 -20
-10 -42 -18 -48 -8 -8 -14 -31 -14 -60 0 -30 -6 -52 -15 -60 -8 -7 -15 -20
-15 -30 0 -10 -7 -23 -15 -30 -8 -7 -15 -27 -15 -45 0 -18 -7 -38 -15 -45 -9
-8 -15 -30 -15 -60 0 -31 -5 -52 -15 -60 -12 -10 -15 -28 -13 -64 l3 -51 64
-3 c84 -4 111 18 111 89 0 29 6 51 15 59 8 7 15 23 15 36 0 15 6 24 15 24 12
0 15 -16 15 -83 0 -74 3 -86 23 -105 20 -19 35 -22 98 -22 57 1 79 5 97 19 26
22 28 37 7 45 -9 3 -15 18 -15 39 0 19 -7 40 -15 47 -9 8 -15 30 -15 59 0 39
-5 52 -30 76 -16 16 -30 36 -30 46 0 9 -7 22 -15 29 -8 7 -15 27 -15 45 0 18
-7 38 -15 45 -8 7 -15 27 -15 45 0 18 -7 38 -15 45 -8 7 -15 20 -15 29 -1 19
-34 61 -48 61 -5 0 -12 -6 -15 -14z"/>
<path d="M3560 3065 c0 -8 7 -15 16 -15 11 0 14 -8 12 -27 -3 -24 -8 -29 -42
-33 -44 -6 -63 -30 -24 -30 46 0 67 -37 70 -125 3 -75 4 -79 28 -85 29 -7 38
-41 15 -60 -20 -17 -21 -103 0 -120 8 -7 15 -21 15 -32 0 -10 -7 -21 -15 -24
-8 -4 -15 -12 -15 -19 0 -7 7 -15 15 -19 13 -5 15 -53 15 -354 l0 -349 23 -21
c31 -29 77 -29 105 1 12 13 22 30 22 39 0 9 7 21 15 28 12 10 15 49 15 231 0
188 2 219 15 219 9 0 15 -9 15 -24 0 -13 7 -29 15 -36 8 -7 15 -20 15 -30 0
-10 7 -23 15 -30 8 -7 15 -20 15 -30 0 -10 7 -23 15 -30 8 -7 15 -20 15 -30 0
-10 7 -23 15 -30 8 -7 15 -20 15 -29 0 -10 14 -30 30 -46 17 -16 30 -36 30
-46 0 -9 7 -22 15 -29 8 -7 15 -20 15 -29 0 -21 70 -91 91 -91 8 0 32 17 52
38 l37 38 0 91 c0 68 -4 94 -15 103 -12 10 -15 40 -15 150 0 110 -3 140 -15
150 -12 10 -15 37 -15 120 0 83 -3 110 -15 120 -11 9 -15 33 -15 89 0 68 -3
80 -23 99 -33 31 -105 31 -135 -1 -26 -27 -29 -79 -7 -97 12 -10 15 -38 15
-135 0 -97 3 -125 15 -135 9 -7 15 -29 15 -51 0 -28 -4 -39 -15 -39 -9 0 -15
9 -15 24 0 13 -7 29 -15 36 -8 7 -15 27 -15 45 0 18 -7 38 -15 45 -8 7 -15 27
-15 44 0 23 -9 41 -30 61 -25 24 -30 37 -30 75 0 69 -26 90 -113 90 -53 0 -67
3 -67 15 0 9 9 15 23 15 26 0 67 38 67 62 0 9 -7 21 -15 28 -8 7 -15 27 -15
45 0 18 -7 38 -15 45 -8 7 -15 20 -15 30 0 10 -7 23 -15 30 -8 7 -15 23 -15
36 0 15 6 24 15 24 8 0 15 7 15 15 0 8 -7 15 -15 15 -8 0 -15 -7 -15 -15 0
-12 -13 -15 -60 -15 -47 0 -60 3 -60 15 0 8 -7 15 -15 15 -8 0 -15 -7 -15 -15z"/>
<path d="M1253 3010 c-27 -30 -33 -46 -33 -82 0 -28 -6 -50 -15 -58 -9 -8 -15
-30 -15 -60 0 -30 6 -52 15 -60 10 -9 15 -32 15 -77 0 -47 4 -65 15 -69 20 -8
19 -30 -1 -38 -11 -4 -14 -17 -12 -43 l3 -38 53 -3 c35 -2 55 -8 59 -18 9 -23
33 -16 33 10 0 13 7 29 15 36 11 9 15 35 15 105 0 70 -4 96 -15 105 -11 9 -15
33 -15 92 0 61 3 80 15 84 8 4 15 12 15 19 0 7 -7 15 -15 19 -8 3 -15 13 -15
23 -1 18 -64 94 -78 92 -4 0 -22 -18 -39 -39z"/>
<path d="M2513 2950 l-33 -37 0 -120 c0 -95 -3 -123 -15 -133 -11 -9 -15 -34
-15 -96 0 -84 6 -98 30 -69 8 9 30 15 59 15 37 0 53 5 69 23 12 13 22 30 22
39 0 9 7 21 15 28 12 10 15 42 15 164 0 146 -1 153 -23 174 -13 12 -31 22 -40
22 -10 0 -20 7 -23 15 -9 23 -26 17 -61 -25z"/>
<path d="M2420 2945 c0 -8 7 -15 15 -15 8 0 15 7 15 15 0 8 -7 15 -15 15 -8 0
-15 -7 -15 -15z"/>
<path d="M1962 2877 c-27 -28 -31 -107 -7 -127 9 -8 15 -30 15 -60 0 -30 6
-52 15 -60 8 -7 15 -20 15 -30 0 -10 7 -23 15 -30 8 -7 15 -20 15 -29 0 -10
11 -28 24 -40 20 -19 33 -22 87 -19 l64 3 3 66 c2 50 -1 69 -13 79 -8 7 -15
20 -15 30 0 10 -7 23 -15 30 -8 7 -15 20 -15 30 0 10 -7 23 -15 30 -8 7 -15
20 -15 30 0 10 -7 23 -15 30 -8 7 -15 20 -15 29 0 27 -43 61 -76 61 -19 0 -39
-9 -52 -23z"/>
<path d="M2777 2886 c-3 -8 -16 -16 -29 -18 -15 -2 -24 -11 -26 -25 -2 -12
-10 -27 -18 -33 -18 -16 -18 -44 1 -60 8 -7 15 -20 15 -30 0 -10 -7 -23 -15
-30 -9 -8 -15 -30 -15 -59 0 -63 28 -91 91 -91 61 0 89 29 89 91 0 70 26 89
122 89 55 0 79 -4 88 -15 34 -41 90 7 90 76 0 48 -29 89 -62 89 -9 0 -21 7
-28 15 -9 11 -35 15 -105 15 -70 0 -96 -4 -105 -15 -7 -8 -21 -15 -32 -15 -10
0 -21 7 -24 15 -8 19 -30 19 -37 1z"/>
<path d="M4677 2893 c-4 -3 -7 -34 -7 -68 0 -44 5 -66 15 -75 12 -10 15 -29
13 -79 l-3 -66 -50 -3 c-27 -2 -57 -10 -66 -18 -12 -11 -35 -14 -80 -12 l-64
3 -3 80 c-2 49 -8 85 -16 95 -8 8 -16 24 -18 35 -3 18 -11 20 -73 20 l-70 0
-3 -111 c-2 -90 0 -113 13 -124 12 -10 15 -39 15 -150 0 -110 3 -140 15 -150
12 -10 15 -40 15 -150 0 -110 3 -140 15 -150 8 -7 15 -20 15 -30 0 -10 -7 -23
-15 -30 -19 -16 -19 -44 -1 -60 8 -6 16 -28 18 -48 3 -37 3 -37 52 -40 39 -3
53 1 72 19 23 22 24 27 24 175 0 122 -3 154 -15 164 -11 9 -15 33 -15 92 0 61
-3 80 -15 84 -43 17 13 63 76 64 29 0 51 6 59 15 9 10 32 15 74 15 52 0 66 -4
84 -23 19 -20 22 -35 22 -114 0 -68 4 -94 15 -103 8 -7 15 -21 15 -32 0 -10 7
-21 15 -24 8 -4 15 -12 15 -19 0 -7 -7 -15 -15 -19 -20 -7 -21 -99 -1 -116 8
-6 16 -21 18 -33 2 -17 11 -23 37 -25 28 -3 40 3 72 34 42 41 48 64 24 84 -10
9 -15 32 -15 77 0 47 -4 65 -15 69 -8 4 -15 12 -15 20 0 8 7 14 15 14 8 0 15
6 15 14 0 8 -7 16 -15 20 -12 4 -15 27 -15 114 0 85 -3 112 -15 122 -10 9 -15
32 -15 75 0 43 -5 66 -15 75 -11 9 -15 33 -15 90 0 57 -4 81 -15 90 -8 7 -15
27 -15 44 0 47 -35 76 -91 76 -25 0 -49 -3 -52 -7z"/>
<path d="M7731 2706 c-7 -8 -29 -16 -49 -18 l-37 -3 -3 -94 c-3 -85 -1 -96 19
-117 25 -27 69 -32 69 -9 0 10 10 15 30 15 19 0 30 5 30 14 0 8 7 16 15 20 11
4 15 20 15 54 0 32 -5 54 -15 62 -8 7 -15 20 -15 29 0 10 -11 27 -23 40 -21
19 -26 20 -36 7z"/>
<path d="M717 2533 c-4 -3 -7 -14 -7 -23 0 -10 -7 -23 -15 -30 -12 -10 -15
-42 -15 -164 0 -146 1 -153 23 -174 13 -12 33 -22 45 -22 13 0 22 -6 22 -15 0
-11 -12 -15 -45 -15 -32 0 -45 -4 -45 -14 0 -8 7 -16 15 -20 9 -3 15 -18 15
-39 0 -25 9 -42 38 -70 40 -40 62 -46 82 -23 6 8 21 16 33 18 17 2 23 11 25
37 4 40 -29 81 -65 81 -33 0 -29 28 5 32 27 3 27 4 32 88 l5 85 66 3 c50 2 69
-1 79 -13 7 -8 27 -15 44 -15 55 0 96 -61 61 -90 -8 -7 -15 -20 -15 -30 0 -10
7 -23 15 -30 10 -9 15 -32 15 -74 0 -58 2 -64 38 -99 21 -20 45 -37 53 -37 26
0 59 44 59 78 0 20 6 35 15 38 8 4 15 12 15 19 0 7 -7 15 -15 19 -12 4 -15 23
-15 84 0 59 4 83 15 92 11 9 15 33 15 89 0 68 -3 80 -23 99 -19 18 -35 22 -84
22 -42 0 -64 -5 -73 -15 -7 -8 -20 -15 -30 -15 -10 0 -23 7 -30 15 -7 8 -20
15 -30 15 -10 0 -23 7 -30 15 -7 8 -20 15 -29 15 -10 0 -30 14 -46 30 -20 21
-38 30 -61 30 -17 0 -37 7 -44 15 -13 15 -100 22 -113 8z"/>
<path d="M8037 2503 c-26 -28 -37 -48 -37 -69 0 -32 -35 -74 -61 -74 -20 0
-59 41 -59 61 0 9 -10 25 -23 37 -27 25 -67 29 -67 7 0 -10 -10 -15 -30 -15
l-30 0 0 -69 c0 -49 4 -72 15 -81 8 -7 15 -27 15 -44 0 -52 34 -76 107 -76 42
0 64 5 73 15 7 8 27 15 45 15 18 0 38 6 45 14 6 8 21 16 33 18 13 2 23 11 25
24 2 11 23 40 47 64 41 40 45 49 45 91 0 28 -6 51 -14 59 -8 6 -16 21 -18 33
-2 17 -11 23 -38 25 -29 2 -41 -3 -73 -35z"/>
<path d="M2667 2472 l-37 -38 0 -226 c0 -188 -2 -228 -15 -238 -19 -16 -19
-74 -1 -90 8 -6 16 -28 18 -48 3 -35 5 -37 40 -40 20 -2 42 -10 48 -18 10 -11
52 -14 224 -14 209 0 213 0 234 23 34 36 29 76 -16 120 -37 36 -40 37 -114 37
-54 0 -79 4 -88 15 -7 9 -35 15 -78 17 l-67 3 -3 67 c-2 43 -8 71 -17 78 -10
9 -15 32 -15 74 0 52 4 66 23 84 20 19 35 22 113 22 82 0 93 2 112 23 31 33
31 105 -1 135 -20 19 -35 22 -114 22 -68 0 -94 4 -103 15 -8 9 -30 15 -59 15
-41 0 -52 -5 -84 -38z"/>
<path d="M2382 2427 c-19 -20 -22 -34 -22 -114 0 -68 -4 -94 -15 -103 -10 -8
-15 -31 -15 -66 0 -41 -4 -54 -15 -54 -9 0 -15 9 -15 24 0 13 -7 29 -15 36 -8
7 -15 20 -15 30 0 10 -7 23 -15 30 -8 7 -15 20 -15 30 0 10 -7 23 -15 30 -9 8
-15 30 -15 59 0 71 -27 93 -111 89 l-64 -3 -3 -51 c-2 -36 1 -54 13 -64 10 -8
15 -29 15 -60 0 -30 6 -52 15 -60 8 -7 15 -27 15 -45 0 -18 7 -38 15 -45 8 -7
15 -20 15 -30 0 -10 7 -23 15 -30 8 -7 15 -27 15 -45 0 -18 7 -38 15 -45 8 -7
15 -20 15 -30 0 -10 7 -23 15 -30 8 -7 15 -20 15 -30 0 -10 6 -23 14 -30 8 -6
16 -21 18 -33 3 -20 9 -22 73 -22 64 0 70 2 73 22 2 12 10 27 18 33 8 7 14 20
14 30 0 10 7 23 15 30 9 8 15 30 15 60 0 30 6 52 15 60 11 9 15 33 15 90 0 57
4 81 15 90 9 8 15 30 15 60 0 31 5 52 15 60 12 10 15 29 13 79 l-3 66 -65 3
c-58 2 -68 0 -88 -21z"/>
<path d="M1437 2413 c-4 -3 -7 -21 -7 -38 0 -18 -7 -38 -15 -45 -12 -10 -15
-42 -15 -165 0 -123 -3 -155 -15 -165 -19 -16 -19 -44 0 -60 9 -7 15 -35 17
-78 l3 -67 33 -3 c20 -2 41 3 50 11 10 8 26 17 37 19 16 3 21 12 23 55 2 29 9
56 17 63 19 16 19 44 -1 60 -10 9 -14 26 -12 49 2 28 8 37 25 39 12 2 27 10
33 18 7 8 27 14 45 14 18 0 38 7 45 15 7 9 23 15 34 13 18 -3 21 -11 24 -54 2
-36 -1 -54 -13 -64 -10 -9 -15 -31 -15 -75 0 -58 3 -65 30 -88 33 -28 39 -47
15 -47 -8 0 -15 -6 -15 -14 0 -8 7 -16 15 -20 9 -3 15 -18 15 -39 0 -22 8 -41
23 -55 27 -25 79 -29 97 -8 6 8 21 16 33 18 19 3 22 10 25 54 2 36 -1 54 -13
64 -19 16 -19 44 0 60 12 10 15 40 15 150 0 110 -3 140 -15 150 -8 7 -15 21
-15 32 0 10 7 21 15 24 19 8 19 30 1 37 -10 4 -16 24 -18 59 -3 46 -6 53 -25
56 -12 2 -27 10 -34 18 -10 13 -14 13 -28 0 -9 -8 -38 -16 -66 -18 -43 -3 -50
-6 -55 -28 -3 -14 -14 -26 -25 -28 -11 -2 -28 -11 -37 -19 -27 -24 -53 -12
-56 27 -6 58 -35 80 -107 80 -34 0 -65 -3 -68 -7z"/>
<path d="M7486 2285 c-3 -9 -18 -15 -39 -15 -19 0 -40 -7 -47 -15 -7 -8 -27
-15 -45 -15 -18 0 -38 -7 -45 -15 -20 -23 -46 -18 -74 16 -24 29 -28 30 -44
16 -9 -8 -33 -17 -52 -19 l-35 -3 -3 -79 -3 -79 38 -39 c40 -41 63 -47 83 -23
7 8 20 15 30 15 10 0 23 7 30 15 7 8 20 15 30 15 10 0 23 7 30 15 9 10 32 15
75 15 42 0 66 5 75 14 6 8 28 16 48 18 l37 3 0 70 c0 66 -1 70 -23 73 -13 2
-26 10 -29 18 -7 18 -29 18 -37 -1z"/>
<path d="M6898 1903 c-20 -21 -38 -47 -40 -58 -3 -19 -12 -20 -203 -23 -156
-2 -202 -6 -215 -17 -10 -9 -44 -15 -95 -17 -69 -3 -80 -5 -85 -23 -6 -25 -32
-65 -42 -65 -4 0 -26 20 -49 45 -23 25 -49 45 -59 45 -10 0 -23 7 -30 15 -18
21 -252 22 -270 1 -6 -8 -28 -16 -48 -18 l-37 -3 -3 -111 c-2 -90 0 -113 13
-124 13 -11 15 -51 15 -270 0 -217 2 -260 15 -270 12 -10 15 -38 15 -135 0
-97 3 -125 15 -135 9 -8 15 -30 15 -59 0 -41 5 -52 38 -84 40 -40 62 -46 82
-23 6 8 21 16 33 18 21 3 22 7 25 159 2 130 0 158 -13 169 -17 14 -21 90 -4
90 20 0 48 -44 49 -75 0 -23 12 -42 45 -75 25 -24 45 -51 45 -60 0 -9 14 -29
30 -45 17 -16 30 -36 30 -45 0 -9 11 -27 24 -39 19 -18 33 -22 72 -19 l49 3 3
66 c2 50 -1 69 -13 79 -8 7 -15 20 -15 30 0 10 -7 23 -15 30 -8 7 -15 20 -15
30 0 10 -7 23 -15 30 -8 7 -15 20 -15 30 0 10 -7 23 -15 30 -8 7 -15 20 -15
30 0 10 -20 36 -45 59 -25 23 -45 43 -45 45 0 2 41 43 90 92 89 87 90 88 90
136 0 34 5 50 15 54 20 8 19 30 0 38 -13 5 -15 20 -13 73 l3 68 100 0 100 0 3
-308 c2 -261 5 -309 17 -313 19 -8 19 -30 0 -38 -19 -7 -20 -69 -1 -86 8 -6
16 -21 18 -33 3 -19 10 -22 52 -25 39 -3 53 1 72 19 l24 22 0 348 c0 301 -2
348 -16 359 -10 9 -14 26 -12 49 2 28 8 37 25 39 12 2 27 10 33 18 16 18 44
18 60 -1 7 -8 21 -15 32 -15 10 0 21 7 24 15 10 24 34 18 34 -9 0 -13 7 -29
15 -36 12 -10 15 -40 15 -150 0 -110 3 -140 15 -150 12 -10 15 -37 15 -120 0
-83 3 -110 15 -120 12 -10 15 -42 15 -164 l0 -152 38 -37 c45 -44 87 -49 120
-14 21 22 22 33 22 173 0 144 1 151 23 172 33 31 105 31 135 -1 19 -20 22 -35
22 -99 0 -54 4 -79 15 -88 8 -7 15 -34 17 -63 l3 -52 70 0 70 0 3 96 c2 77 0
99 -13 109 -12 10 -15 36 -15 120 0 83 -3 110 -15 120 -11 9 -15 33 -15 90 0
57 -4 81 -15 90 -11 9 -15 33 -15 90 0 57 -4 81 -15 90 -11 9 -15 33 -15 90 0
57 -4 81 -15 90 -10 9 -15 32 -15 75 0 42 -5 66 -14 75 -8 6 -16 28 -18 48
l-3 37 -55 0 -55 0 -3 -96 c-2 -77 0 -99 13 -109 11 -9 15 -32 15 -90 0 -57 4
-81 15 -90 11 -9 15 -35 15 -107 0 -74 3 -95 15 -99 23 -9 18 -21 -22 -59 -36
-33 -41 -35 -103 -32 l-65 2 -3 171 c-2 137 -5 174 -17 184 -12 10 -15 37 -15
120 0 83 -3 110 -15 120 -8 7 -15 20 -15 29 0 21 -40 61 -61 61 -8 0 -31 -17
-51 -37z m-848 -277 c6 -8 21 -16 33 -18 14 -2 23 -11 25 -25 2 -12 10 -27 18
-33 20 -17 19 -133 -1 -150 -8 -7 -15 -20 -15 -29 0 -9 -17 -34 -39 -55 -35
-34 -42 -37 -87 -34 l-49 3 -3 141 c-2 110 -6 145 -17 154 -16 13 -20 42 -8
53 13 14 130 7 143 -7z"/>
<path d="M5217 1842 l-37 -38 0 -121 c0 -95 -3 -123 -15 -133 -13 -10 -15 -50
-15 -240 0 -190 -2 -230 -15 -240 -12 -10 -15 -47 -15 -210 0 -163 -3 -200
-15 -210 -12 -10 -15 -38 -15 -134 l0 -122 38 -37 c45 -44 87 -49 120 -14 21
22 22 33 22 189 0 132 3 168 14 178 8 6 16 28 18 48 l3 37 67 3 c43 2 71 8 78
17 7 8 21 15 32 15 10 0 21 7 24 15 12 31 34 16 34 -24 0 -22 6 -44 15 -51 9
-8 15 -30 15 -60 0 -30 6 -52 15 -60 8 -7 15 -20 15 -30 0 -10 6 -23 14 -30 8
-6 16 -20 18 -30 3 -17 153 -180 165 -180 3 0 13 10 24 23 22 27 25 80 4 97
-8 7 -15 27 -15 45 0 18 -7 38 -15 45 -9 8 -15 30 -15 59 0 39 -5 52 -30 76
-16 16 -30 36 -30 46 0 9 -7 22 -15 29 -8 7 -15 27 -15 45 0 18 -7 38 -15 45
-8 7 -15 27 -15 45 0 18 -7 38 -15 45 -10 9 -15 32 -15 75 0 43 -5 66 -15 75
-8 7 -15 27 -15 45 0 18 -7 38 -15 45 -8 7 -15 27 -15 45 0 18 -7 38 -15 45
-9 8 -15 30 -15 60 0 30 -6 52 -15 60 -8 7 -15 27 -15 45 0 25 -8 40 -30 58
-33 28 -39 47 -15 47 8 0 15 6 15 14 0 8 -7 16 -15 20 -11 4 -15 20 -15 54 0
32 -5 54 -15 62 -8 7 -15 20 -15 29 0 9 -24 40 -53 69 -67 66 -96 69 -150 14z
m143 -436 c0 -13 7 -29 15 -36 9 -8 15 -30 15 -60 0 -30 6 -52 15 -60 9 -8 15
-30 15 -60 0 -30 6 -52 15 -60 23 -19 19 -73 -9 -99 -19 -18 -33 -22 -72 -19
l-49 3 -3 141 c-2 117 0 143 13 154 10 8 15 30 15 66 0 41 4 54 15 54 9 0 15
-9 15 -24z"/>
<path d="M4820 1625 c-9 -11 -33 -15 -90 -15 -57 0 -81 -4 -90 -15 -8 -9 -30
-15 -60 -15 -29 0 -52 -6 -60 -14 -6 -8 -28 -16 -48 -18 -35 -3 -37 -5 -40
-40 -2 -20 -10 -42 -18 -48 -18 -16 -18 -49 1 -56 8 -4 15 -12 15 -20 0 -8 -7
-14 -15 -14 -8 0 -15 -6 -15 -14 0 -8 7 -16 15 -20 12 -4 15 -25 15 -101 0
-76 3 -97 15 -101 8 -4 15 -12 15 -20 0 -8 -7 -14 -15 -14 -8 0 -15 -6 -15
-14 0 -8 7 -16 15 -20 12 -4 15 -25 15 -99 0 -72 4 -98 15 -107 11 -9 15 -33
15 -92 0 -61 3 -80 15 -84 8 -4 15 -12 15 -19 0 -7 -7 -15 -15 -19 -19 -7 -19
-40 0 -56 9 -7 15 -35 17 -78 3 -60 5 -67 25 -70 12 -2 27 -10 33 -18 18 -21
222 -20 240 1 9 10 32 15 74 15 58 0 64 2 99 38 32 32 37 44 37 83 0 48 -29
89 -62 89 -9 0 -21 7 -28 15 -7 8 -20 15 -30 15 -10 0 -23 -7 -30 -15 -9 -11
-33 -15 -89 -15 -68 0 -80 3 -99 23 -18 19 -22 35 -22 83 0 78 23 104 92 104
28 0 50 6 58 15 7 8 20 15 30 15 10 0 23 6 30 14 6 8 21 16 33 18 18 2 23 11
25 41 2 22 10 41 18 44 18 7 18 29 0 36 -8 3 -16 16 -18 29 -2 15 -11 24 -25
26 -12 2 -27 10 -33 18 -18 21 -163 20 -180 -1 -7 -9 -23 -15 -34 -13 -16 2
-22 11 -24 41 -2 22 -10 41 -18 44 -19 7 -18 33 1 33 8 0 15 6 15 14 0 8 -7
16 -15 20 -10 4 -15 20 -15 54 0 73 25 92 122 92 55 0 79 4 88 15 7 8 27 15
45 15 18 0 38 7 45 15 7 8 20 15 29 15 27 0 61 43 61 76 0 21 -11 40 -38 67
-32 32 -44 37 -84 37 -28 0 -50 -6 -58 -15z m120 -1080 c0 -8 -7 -15 -15 -15
-8 0 -15 7 -15 15 0 8 7 15 15 15 8 0 15 -7 15 -15z m-60 -60 c0 -8 -7 -15
-15 -15 -8 0 -15 7 -15 15 0 8 7 15 15 15 8 0 15 -7 15 -15z"/>
<path d="M3380 1565 c-9 -11 -33 -15 -90 -15 -57 0 -81 -4 -90 -15 -8 -9 -30
-15 -59 -15 -69 0 -91 -27 -91 -108 0 -46 -4 -64 -15 -68 -8 -4 -15 -12 -15
-19 0 -7 7 -15 15 -19 13 -5 15 -68 15 -489 l0 -484 23 -21 c22 -20 33 -22
159 -22 108 0 138 3 148 15 9 11 35 15 104 15 l92 0 37 38 c27 28 37 46 37 70
0 20 6 35 15 38 8 4 15 12 15 20 0 10 -14 14 -54 14 -35 0 -58 5 -66 15 -18
22 -222 22 -240 0 -7 -9 -23 -15 -34 -13 -20 3 -21 9 -21 103 l0 100 66 3 c50
2 69 -1 79 -13 16 -19 44 -19 60 0 7 8 34 15 63 17 l52 3 0 85 0 85 -35 3
c-19 2 -42 10 -50 17 -11 10 -51 15 -140 17 l-125 3 -3 184 c-2 178 -2 185 20
208 17 18 32 23 69 23 29 0 51 6 59 15 9 10 32 15 74 15 80 0 106 23 106 91 0
48 -29 89 -62 89 -9 0 -21 7 -28 15 -7 8 -27 15 -45 15 -18 0 -38 -7 -45 -15z"/>
<path d="M1820 1466 c0 -13 -7 -29 -15 -36 -12 -10 -15 -28 -13 -64 l3 -51 65
-3 c36 -2 71 -9 80 -17 8 -7 31 -15 50 -17 27 -2 36 -8 38 -26 2 -13 -3 -25
-12 -28 -20 -8 -21 -30 -1 -38 8 -3 15 -14 15 -24 0 -11 -7 -25 -15 -32 -12
-10 -15 -45 -15 -195 0 -153 -3 -185 -16 -195 -10 -9 -14 -26 -12 -49 2 -28 8
-37 25 -39 12 -2 27 -10 33 -18 16 -18 44 -18 60 0 6 8 21 16 33 18 14 2 23
11 25 25 2 12 10 27 18 33 10 10 14 39 14 120 0 83 3 110 15 120 10 9 15 32
15 75 0 43 -5 66 -15 75 -8 7 -15 20 -15 30 0 10 7 23 15 30 8 7 15 27 15 44
1 31 29 76 48 76 5 0 12 -7 16 -15 4 -12 24 -15 86 -15 62 0 82 3 86 15 4 8
12 15 20 15 21 0 20 -133 -1 -150 -11 -9 -15 -33 -15 -92 0 -61 -3 -80 -15
-84 -8 -4 -15 -12 -15 -19 0 -7 7 -15 15 -19 8 -3 15 -14 15 -24 0 -11 -7 -25
-15 -32 -12 -10 -15 -37 -15 -120 0 -83 -3 -110 -15 -120 -10 -9 -15 -32 -15
-74 0 -58 2 -64 38 -99 32 -32 44 -37 83 -37 69 0 87 25 91 125 3 79 3 80 31
83 15 2 27 9 27 17 0 8 -12 15 -27 17 -28 3 -28 4 -28 73 l0 70 85 0 85 0 3
-66 c2 -50 -1 -69 -13 -79 -19 -16 -19 -44 0 -60 11 -9 15 -33 15 -89 0 -68 3
-80 23 -99 27 -25 50 -28 67 -8 6 8 28 16 48 18 l37 3 3 83 c2 61 7 84 17 89
19 7 19 29 0 37 -12 4 -15 24 -15 86 0 62 -3 82 -15 86 -8 4 -15 12 -15 19 0
7 7 15 15 19 8 3 15 15 15 26 0 11 7 23 15 26 19 8 19 30 0 38 -12 4 -15 45
-17 253 l-3 248 -49 3 c-39 3 -53 -1 -72 -19 -23 -21 -24 -29 -24 -146 0 -101
-3 -125 -15 -129 -20 -8 -19 -30 1 -38 11 -4 14 -17 12 -43 l-3 -38 -64 -3
c-54 -3 -67 0 -87 19 -28 26 -32 80 -9 99 11 9 15 35 15 107 0 74 3 95 15 99
8 4 15 12 15 19 0 7 -7 15 -15 19 -8 3 -15 14 -15 24 0 58 -114 86 -158 39
-14 -15 -22 -36 -22 -60 0 -26 -4 -37 -15 -37 -9 0 -15 9 -15 23 0 13 -10 33
-23 45 -20 19 -35 22 -114 22 -68 0 -94 4 -103 15 -10 12 -43 15 -182 15 -141
0 -170 2 -174 15 -10 24 -34 18 -34 -9z"/>
</g>
</svg>
